<mxfile host="app.diagrams.net" modified="2021-08-26T14:52:57.970Z" agent="5.0 (X11)" etag="oYwchsvjatU5bPvKf3JM" version="14.9.5" type="github">
  <diagram id="C5RBs43oDa-KdzZeNtuy" name="Page-1">
    <mxGraphModel dx="1100" dy="628" grid="1" gridSize="10" guides="1" tooltips="1" connect="1" arrows="1" fold="1" page="1" pageScale="1" pageWidth="827" pageHeight="1169" math="0" shadow="0">
      <root>
        <mxCell id="WIyWlLk6GJQsqaUBKTNV-0" />
        <mxCell id="WIyWlLk6GJQsqaUBKTNV-1" parent="WIyWlLk6GJQsqaUBKTNV-0" />
        <mxCell id="X3VQXI_sIxoggyghLsqG-4" value="Survey" style="shape=module;align=left;spacingLeft=20;align=center;verticalAlign=top;fillColor=none;" vertex="1" parent="WIyWlLk6GJQsqaUBKTNV-1">
          <mxGeometry x="60" y="90" width="330" height="210" as="geometry" />
        </mxCell>
        <mxCell id="X3VQXI_sIxoggyghLsqG-5" value="Survey group" style="shape=module;align=left;spacingLeft=20;align=center;verticalAlign=top;fillColor=none;" vertex="1" parent="WIyWlLk6GJQsqaUBKTNV-1">
          <mxGeometry x="414" y="90" width="330" height="210" as="geometry" />
        </mxCell>
        <mxCell id="X3VQXI_sIxoggyghLsqG-6" value="Question" style="shape=module;align=left;spacingLeft=20;align=center;verticalAlign=top;fillColor=none;" vertex="1" parent="WIyWlLk6GJQsqaUBKTNV-1">
          <mxGeometry x="770" y="90" width="330" height="210" as="geometry" />
        </mxCell>
      </root>
    </mxGraphModel>
  </diagram>
</mxfile>
